<?xml version="1.0" encoding="utf-8"?>
<!-- Generator: Adobe Illustrator 16.0.0, SVG Export Plug-In . SVG Version: 6.00 Build 0)  -->
<!DOCTYPE svg PUBLIC "-//W3C//DTD SVG 1.1//EN" "http://www.w3.org/Graphics/SVG/1.1/DTD/svg11.dtd">
<svg version="1.1" id="Capa_1" xmlns="http://www.w3.org/2000/svg" xmlns:xlink="http://www.w3.org/1999/xlink" x="0px" y="0px"
	 width="1024px" height="768px" viewBox="0 0 1024 768" enable-background="new 0 0 1024 768" xml:space="preserve">
<g>
	<g>
		<g>
			<path fill="#FFFFFF" d="M717.395,351.254h-275.05v91.684h167.808c-25.032,79.708-99.484,137.525-187.457,137.525
				c-108.506,0-196.463-87.963-196.463-196.465c0-108.506,87.96-196.463,196.463-196.463c54.641,0,104.062,22.311,139.673,58.313
				l66.552-72.338c-53.151-52.082-125.93-84.206-206.225-84.206C259.94,89.303,128,221.243,128,383.998
				c0,162.756,131.94,294.699,294.697,294.699c142.569,0,267.392-101.249,294.699-235.758v-91.685L717.395,351.254L717.395,351.254z
				"/>
			<polygon fill="#FFFFFF" points="896,351.098 839.74,351.098 839.74,294.838 791.514,294.838 791.514,351.098 735.254,351.098 
				735.254,399.319 791.514,399.319 791.514,455.58 839.74,455.58 839.74,399.319 896,399.319 			"/>
		</g>
	</g>
</g>
</svg>
