<?xml version="1.0" encoding="utf-8"?>
<!-- Generator: Adobe Illustrator 16.0.0, SVG Export Plug-In . SVG Version: 6.00 Build 0)  -->
<!DOCTYPE svg PUBLIC "-//W3C//DTD SVG 1.1//EN" "http://www.w3.org/Graphics/SVG/1.1/DTD/svg11.dtd">
<svg version="1.1" id="Capa_1" xmlns="http://www.w3.org/2000/svg" xmlns:xlink="http://www.w3.org/1999/xlink" x="0px" y="0px"
	 width="1024px" height="768px" viewBox="0 0 1024 768" enable-background="new 0 0 1024 768" xml:space="preserve">
<g>
	<g>
		<path fill="#FFFFFF" d="M896,145.893c-28.267,12.525-58.597,21.02-90.463,24.812c32.538-19.484,57.445-50.391,69.25-87.104
			c-30.521,18.044-64.212,31.146-100.109,38.249c-28.746-30.666-69.635-49.767-114.987-49.767
			c-87.007,0-157.554,70.547-157.554,157.506c0,12.333,1.392,24.379,4.079,35.898c-130.918-6.576-247.008-69.3-324.706-164.611
			c-13.582,23.229-21.308,50.294-21.308,79.186c0,54.663,27.835,102.893,70.067,131.111c-25.82-0.863-50.103-7.966-71.362-19.772
			v1.968c0,76.305,54.326,139.989,126.359,154.483c-13.198,3.552-27.114,5.52-41.512,5.52c-10.174,0-20.012-1.008-29.659-2.928
			c20.06,62.628,78.226,108.171,147.141,109.42c-53.894,42.232-121.85,67.332-195.659,67.332c-12.717,0-25.244-0.769-37.577-2.16
			c69.731,44.776,152.516,70.883,241.491,70.883c289.817,0,448.235-240.051,448.235-448.235l-0.528-20.396
			C848.153,205.209,874.932,177.471,896,145.893z"/>
	</g>
</g>
</svg>
